<svg width="174" height="40" viewBox="0 0 174 40" fill="none" xmlns="http://www.w3.org/2000/svg">
<path d="M16.0429 27.3063C13.8665 26.498 11.628 26.3736 9.57599 26.9333C8.14581 27.3063 6.77781 28.0525 5.53417 28.9852L4.66361 29.7314L4.41489 29.9802L4.97452 30.4776C5.0367 30.4776 5.03671 30.5398 5.09889 30.602C5.22325 30.7263 5.34763 30.7885 5.53417 30.9129L5.90725 31.1616L6.28034 30.8507C6.34252 30.7885 6.46689 30.6642 6.59125 30.602C7.71052 29.6692 8.95415 29.0474 10.26 28.7365C11.9389 28.3012 13.7422 28.3634 15.5454 29.0474C17.0378 29.6071 20.0847 30.2911 23.7534 28.7365L23.8778 28.6743L24.0643 28.4878C24.0643 28.4256 24.1265 28.4256 24.1887 28.3634C24.4996 27.9903 24.8105 27.6172 25.0593 27.182L26.3029 25.2543L24.3131 26.3736C21.3905 27.9903 18.7167 28.3012 16.0429 27.3063Z" fill="#55B02E"/>
<path d="M7.52397 20.5907C9.20288 20.1554 11.0062 20.2176 12.8094 20.9016C14.7992 21.6478 19.8982 22.7049 25.6189 17.5438L26.5516 16.6111L26.6138 16.5489L26.8625 16.3002L26.7381 15.9893C26.676 15.7405 26.5516 15.4296 26.4272 15.1187L26.1163 14.2482L25.4945 14.87C25.4323 14.9944 25.308 15.0565 25.1836 15.1809C22.4476 17.9791 18.2192 20.8395 13.3691 19.0984C11.1927 18.29 8.95415 18.1656 6.90215 18.7253C4.91233 19.2849 3.17124 20.342 1.55451 21.8344V21.7722L0.621784 22.7671C0.621784 22.8293 0.559614 22.8293 0.497432 22.8915L0.310875 23.078L0.373061 23.3267C0.435242 23.6376 0.559602 23.9485 0.621784 24.2594L0.994879 25.2544L1.6167 24.446C1.67888 24.3216 1.80324 24.2595 1.86542 24.1351C3.17124 22.9536 4.97451 21.2747 7.52397 20.5907Z" fill="#55B02E"/>
<path d="M1.49235 19.4714C2.92253 17.9791 4.53925 17.0463 6.28034 16.5489C7.95925 16.1136 9.76252 16.1758 11.5658 16.8598C17.1622 18.9118 22.0123 15.554 24.1265 13.7507L24.9349 12.9424L25.2458 12.6936L24.9971 12.3205C24.8105 12.134 24.6862 11.8853 24.4996 11.6365L24.1265 11.1391L23.6912 11.5743C23.6291 11.6365 23.5047 11.7609 23.4425 11.8231C20.8309 14.3103 16.7891 16.8598 12.1876 15.1187C10.0112 14.3104 7.7727 14.186 5.7207 14.7456C4.41489 15.1187 3.17125 15.7405 1.92761 16.5489L0.621788 17.606C0.497424 17.7304 0.435242 17.7925 0.310879 17.9169L0.186526 18.0413V18.2278C0.124345 18.6631 0.124337 19.0984 0.0621551 19.4714L-3.05176e-05 21.026L1.05707 19.9067C1.18143 19.7823 1.3058 19.5958 1.49235 19.4714Z" fill="#55B02E"/>
<path d="M17.8462 31.5347L17.7218 31.9078L17.8462 31.5347C17.6596 31.4725 17.5353 31.4103 17.3487 31.3481C15.1724 30.5398 12.9338 30.4154 10.8818 30.9751C10.4465 31.0994 10.0113 31.2238 9.576 31.4103L8.08362 32.0943L7.71054 32.2809L8.95418 32.7162C9.32727 32.8405 9.70035 32.9649 10.0734 33.0892L10.26 33.1514L10.4465 33.0892C10.6331 33.0271 10.8196 32.9027 11.0062 32.9027C11.1305 32.9027 11.2549 32.8405 11.3793 32.7783C12.8716 32.4052 14.4883 32.4052 16.2294 32.9649C16.416 33.0271 16.5404 33.0893 16.7269 33.1514L17.0378 33.2758L17.2244 33.2136C17.6596 33.0892 18.1571 32.9649 18.5302 32.7783L20.2713 32.1565L18.468 31.7212C18.2814 31.6591 18.0327 31.5969 17.8462 31.5347Z" fill="#55B02E"/>
<path d="M27.36 18.6631L26.4273 19.5958C26.3029 19.7202 26.1786 19.8445 26.0542 19.9689C23.5047 22.394 19.4007 25.0056 14.7993 23.2645C12.6229 22.4562 10.3844 22.3318 8.33237 22.8915C6.40473 23.4511 4.66363 24.446 3.10908 25.9384L2.30073 26.8089L2.052 27.1198L2.30073 27.4929C2.48727 27.7416 2.61164 27.9282 2.73601 28.1769L3.10908 28.7365L3.54436 28.1769C3.60654 28.1147 3.7309 27.9904 3.79309 27.9282C5.28545 26.3114 6.90218 25.3165 8.76763 24.8191C10.4465 24.3838 12.2498 24.446 14.0531 25.13C15.6076 25.6896 17.2244 25.8762 18.8411 25.6896C21.7015 25.3787 24.5618 23.762 26.676 21.9587C26.8004 21.8344 26.9247 21.7722 27.0491 21.6478L27.2356 21.4613V21.2747C27.2356 20.9016 27.2978 20.4664 27.2978 20.0933L27.36 18.6631Z" fill="#55B02E"/>
<path d="M3.73088 12.9424L3.54434 12.5693L3.73088 12.9424C4.10397 12.7558 4.53926 12.6315 4.91235 12.5071C6.59126 12.0718 8.39453 12.134 10.1978 12.818C11.3793 13.2533 12.5607 13.4398 13.8665 13.4398C16.4782 13.4398 19.0898 12.5071 21.5149 10.7038L22.4476 9.95764L22.7585 9.70892L22.1989 9.27364C22.0123 9.08709 21.7636 8.90055 21.5149 8.77619L21.1418 8.52747L20.8309 8.77619C20.7065 8.83837 20.6443 8.96273 20.52 9.02491C17.2243 11.5122 13.9287 12.1962 10.8196 11.0147C8.58108 10.2064 6.34252 10.0198 4.10397 10.7038C3.91743 10.766 3.73088 10.8282 3.48216 10.8904L3.3578 10.9526L3.17125 11.1391C3.17125 11.2013 3.10908 11.2013 3.04689 11.2635C2.79817 11.6366 2.48725 11.9475 2.23852 12.3206L1.05707 14.1238L2.98471 13.1289C3.29562 13.1289 3.54433 13.0046 3.73088 12.9424Z" fill="#55B02E"/>
<path d="M8.82981 8.71399L9.01634 8.77617C9.82471 9.08708 11.0684 9.39799 12.6229 9.39799C14.2396 9.39799 15.7942 9.0249 17.3487 8.40308L19.2763 7.47035L17.9705 7.03509C17.5975 6.91073 17.2243 6.78636 16.7891 6.72418H16.6025L16.416 6.78635C16.2295 6.84853 16.0429 6.97291 15.8563 7.03509C13.9909 7.71909 12.1254 7.84345 10.3222 7.346C10.1356 7.28382 9.94908 7.22163 9.76253 7.15944L9.576 7.09726L9.38944 7.15944C9.01635 7.28381 8.64327 7.40818 8.27017 7.59472L6.83998 8.21654L8.33236 8.6518C8.45672 8.58962 8.64326 8.65181 8.82981 8.71399Z" fill="#55B02E"/>
<path d="M40.4759 30.5V18.992H37.7599V16.36H41.4559L40.4759 17.256V15.1C40.4759 13.3453 40.9146 12.02 41.7919 11.124C42.6879 10.228 43.9853 9.78 45.6839 9.78C46.0946 9.78 46.5239 9.808 46.9719 9.864C47.4386 9.92 47.8399 10.0227 48.1759 10.172V12.916C47.9333 12.8227 47.6439 12.748 47.3079 12.692C46.9719 12.636 46.6453 12.608 46.3279 12.608C45.5999 12.608 45.0213 12.8227 44.5919 13.252C44.1626 13.6627 43.9479 14.3347 43.9479 15.268V16.976L43.4439 16.36H53.2719V30.5H49.7719V18.992H43.9759V30.5H40.4759ZM49.5759 13.7V10.284H53.4679V13.7H49.5759ZM57.0786 30.5V19.888C57.0786 19.3093 57.06 18.7213 57.0226 18.124C56.9853 17.5267 56.9293 16.9387 56.8546 16.36H60.2426L60.5226 19.16H60.1866C60.6346 18.1707 61.2973 17.4147 62.1746 16.892C63.052 16.3507 64.0693 16.08 65.2266 16.08C66.888 16.08 68.1386 16.5467 68.9786 17.48C69.8186 18.4133 70.2386 19.8693 70.2386 21.848V30.5H66.7386V22.016C66.7386 20.8773 66.5146 20.0653 66.0666 19.58C65.6373 19.076 64.984 18.824 64.1066 18.824C63.024 18.824 62.1653 19.16 61.5306 19.832C60.896 20.504 60.5786 21.4 60.5786 22.52V30.5H57.0786ZM79.4097 30.78C78.1777 30.78 77.0951 30.4907 76.1617 29.912C75.2284 29.3147 74.5004 28.4653 73.9777 27.364C73.4551 26.2627 73.1937 24.9467 73.1937 23.416C73.1937 21.8853 73.4551 20.5787 73.9777 19.496C74.5004 18.3947 75.2284 17.5547 76.1617 16.976C77.0951 16.3787 78.1777 16.08 79.4097 16.08C80.6044 16.08 81.6497 16.3787 82.5457 16.976C83.4604 17.5547 84.0671 18.3387 84.3657 19.328H84.0577L84.3657 16.36H87.7257C87.6697 16.9387 87.6137 17.5267 87.5577 18.124C87.5204 18.7213 87.5017 19.3093 87.5017 19.888V30.5H84.0297L84.0017 27.588H84.3377C84.0391 28.5587 83.4324 29.3333 82.5177 29.912C81.6031 30.4907 80.5671 30.78 79.4097 30.78ZM80.3897 28.092C81.4911 28.092 82.3777 27.7093 83.0497 26.944C83.7217 26.16 84.0577 24.984 84.0577 23.416C84.0577 21.848 83.7217 20.6813 83.0497 19.916C82.3777 19.1507 81.4911 18.768 80.3897 18.768C79.2884 18.768 78.4017 19.1507 77.7297 19.916C77.0577 20.6813 76.7217 21.848 76.7217 23.416C76.7217 24.984 77.0484 26.16 77.7017 26.944C78.3737 27.7093 79.2697 28.092 80.3897 28.092ZM91.313 30.5V19.888C91.313 19.3093 91.2943 18.7213 91.257 18.124C91.2197 17.5267 91.1637 16.9387 91.089 16.36H94.477L94.757 19.16H94.421C94.869 18.1707 95.5317 17.4147 96.409 16.892C97.2863 16.3507 98.3037 16.08 99.461 16.08C101.122 16.08 102.373 16.5467 103.213 17.48C104.053 18.4133 104.473 19.8693 104.473 21.848V30.5H100.973V22.016C100.973 20.8773 100.749 20.0653 100.301 19.58C99.8717 19.076 99.2183 18.824 98.341 18.824C97.2583 18.824 96.3997 19.16 95.765 19.832C95.1303 20.504 94.813 21.4 94.813 22.52V30.5H91.313ZM114.68 30.78C113.224 30.78 111.945 30.4813 110.844 29.884C109.761 29.2867 108.921 28.4373 108.324 27.336C107.727 26.216 107.428 24.8907 107.428 23.36C107.428 21.8293 107.727 20.5227 108.324 19.44C108.94 18.3573 109.789 17.5267 110.872 16.948C111.955 16.3693 113.224 16.08 114.68 16.08C115.613 16.08 116.519 16.2293 117.396 16.528C118.292 16.808 119.02 17.2187 119.58 17.76L118.516 20.196C118.012 19.7293 117.443 19.384 116.808 19.16C116.192 18.9173 115.585 18.796 114.988 18.796C113.737 18.796 112.757 19.188 112.048 19.972C111.357 20.756 111.012 21.8947 111.012 23.388C111.012 24.8813 111.357 26.0293 112.048 26.832C112.757 27.6347 113.737 28.036 114.988 28.036C115.567 28.036 116.164 27.924 116.78 27.7C117.415 27.476 117.993 27.1307 118.516 26.664L119.58 29.072C119.001 29.6133 118.264 30.0333 117.368 30.332C116.491 30.6307 115.595 30.78 114.68 30.78ZM128.852 30.78C126.481 30.78 124.624 30.1267 123.28 28.82C121.936 27.5133 121.264 25.7213 121.264 23.444C121.264 21.9693 121.553 20.6813 122.132 19.58C122.711 18.4787 123.513 17.62 124.54 17.004C125.585 16.388 126.799 16.08 128.18 16.08C129.543 16.08 130.681 16.3693 131.596 16.948C132.511 17.5267 133.201 18.3387 133.668 19.384C134.153 20.4293 134.396 21.652 134.396 23.052V23.976H124.092V22.128H131.904L131.428 22.52C131.428 21.2133 131.148 20.2147 130.588 19.524C130.047 18.8333 129.253 18.488 128.208 18.488C127.051 18.488 126.155 18.8987 125.52 19.72C124.904 20.5413 124.596 21.6893 124.596 23.164V23.528C124.596 25.0587 124.969 26.2067 125.716 26.972C126.481 27.7187 127.555 28.092 128.936 28.092C129.739 28.092 130.485 27.9893 131.176 27.784C131.885 27.56 132.557 27.2053 133.192 26.72L134.228 29.072C133.556 29.6133 132.753 30.0333 131.82 30.332C130.887 30.6307 129.897 30.78 128.852 30.78ZM136.968 30.5V26.608H140.888V30.5H136.968ZM149.683 30.78C148.451 30.78 147.368 30.4907 146.435 29.912C145.502 29.3147 144.774 28.4653 144.251 27.364C143.728 26.2627 143.467 24.9467 143.467 23.416C143.467 21.8853 143.728 20.5787 144.251 19.496C144.774 18.3947 145.502 17.5547 146.435 16.976C147.368 16.3787 148.451 16.08 149.683 16.08C150.878 16.08 151.923 16.3787 152.819 16.976C153.734 17.5547 154.34 18.3387 154.639 19.328H154.331L154.639 16.36H157.999C157.943 16.9387 157.887 17.5267 157.831 18.124C157.794 18.7213 157.775 19.3093 157.775 19.888V30.5H154.303L154.275 27.588H154.611C154.312 28.5587 153.706 29.3333 152.791 29.912C151.876 30.4907 150.84 30.78 149.683 30.78ZM150.663 28.092C151.764 28.092 152.651 27.7093 153.323 26.944C153.995 26.16 154.331 24.984 154.331 23.416C154.331 21.848 153.995 20.6813 153.323 19.916C152.651 19.1507 151.764 18.768 150.663 18.768C149.562 18.768 148.675 19.1507 148.003 19.916C147.331 20.6813 146.995 21.848 146.995 23.416C146.995 24.984 147.322 26.16 147.975 26.944C148.647 27.7093 149.543 28.092 150.663 28.092ZM161.586 30.5V16.36H165.086V30.5H161.586ZM161.39 13.7V10.284H165.282V13.7H161.39Z" fill="white"/>
</svg>
